<?xml version="1.0" encoding="iso-8859-1"?>
<!-- Generator: Adobe Illustrator 16.0.0, SVG Export Plug-In . SVG Version: 6.00 Build 0)  -->
<!DOCTYPE svg PUBLIC "-//W3C//DTD SVG 1.1//EN" "http://www.w3.org/Graphics/SVG/1.1/DTD/svg11.dtd">
<svg version="1.1" id="Layer_1" xmlns="http://www.w3.org/2000/svg" xmlns:xlink="http://www.w3.org/1999/xlink" x="0px" y="0px"
	 width="1229.91px" height="824.03px" viewBox="0 0 1229.91 824.03" style="enable-background:new 0 0 1229.91 824.03;"
	 xml:space="preserve">
<g>
	<defs>
		<rect id="SVGID_1_" width="1229.91" height="824.03"/>
	</defs>
	<clipPath id="SVGID_2_">
		<use xlink:href="#SVGID_1_"  style="overflow:visible;"/>
	</clipPath>
	<rect x="215.749" y="329.451" style="clip-path:url(#SVGID_2_);fill:#50E3C2;" width="164.784" height="164.785"/>
	<g style="clip-path:url(#SVGID_2_);">
		<defs>
			<rect id="SVGID_3_" width="1229.913" height="824.03"/>
		</defs>
		<clipPath id="SVGID_4_">
			<use xlink:href="#SVGID_3_"  style="overflow:visible;"/>
		</clipPath>
		<g style="clip-path:url(#SVGID_4_);">
			<g>
				<defs>
					<rect id="SVGID_5_" x="241.46" y="359.085" width="56.68" height="108.839"/>
				</defs>
				<clipPath id="SVGID_6_">
					<use xlink:href="#SVGID_5_"  style="overflow:visible;"/>
				</clipPath>
				<polygon style="clip-path:url(#SVGID_6_);fill:#FFFFFF;" points="298.14,467.925 241.459,435.2 269.008,359.085 				"/>
			</g>
		</g>
		<g style="clip-path:url(#SVGID_4_);">
			<g>
				<defs>
					<rect id="SVGID_7_" x="298.14" y="359.085" width="56.681" height="108.839"/>
				</defs>
				<clipPath id="SVGID_8_">
					<use xlink:href="#SVGID_7_"  style="overflow:visible;"/>
				</clipPath>
				<polygon style="clip-path:url(#SVGID_8_);fill:#FFFFFF;" points="298.14,467.925 354.821,435.2 327.272,359.085 				"/>
			</g>
		</g>
		<g style="clip-path:url(#SVGID_4_);">
			<g>
				<defs>
					<rect id="SVGID_9_" x="241.46" y="359.085" width="113.361" height="108.839"/>
				</defs>
				<clipPath id="SVGID_10_">
					<use xlink:href="#SVGID_9_"  style="overflow:visible;"/>
				</clipPath>
				<polygon style="clip-path:url(#SVGID_10_);fill:#FFFFFF;" points="241.459,435.2 298.141,359.085 354.82,435.2 298.141,467.926 
									"/>
			</g>
		</g>
	</g>
	<rect x="411.502" y="329.451" style="clip-path:url(#SVGID_2_);fill:#50E3C2;" width="164.784" height="164.785"/>
	<g style="clip-path:url(#SVGID_2_);">
		<defs>
			<rect id="SVGID_11_" width="1229.913" height="824.03"/>
		</defs>
		<clipPath id="SVGID_12_">
			<use xlink:href="#SVGID_11_"  style="overflow:visible;"/>
		</clipPath>
		<g style="clip-path:url(#SVGID_12_);">
			<g>
				<defs>
					<rect id="SVGID_13_" x="437.213" y="359.085" width="56.681" height="108.839"/>
				</defs>
				<clipPath id="SVGID_14_">
					<use xlink:href="#SVGID_13_"  style="overflow:visible;"/>
				</clipPath>
				<polygon style="clip-path:url(#SVGID_14_);fill:#1A323D;" points="493.894,467.925 437.213,435.2 464.762,359.085 				"/>
			</g>
		</g>
		<g style="clip-path:url(#SVGID_12_);">
			<g>
				<defs>
					<rect id="SVGID_15_" x="493.894" y="359.085" width="56.68" height="108.839"/>
				</defs>
				<clipPath id="SVGID_16_">
					<use xlink:href="#SVGID_15_"  style="overflow:visible;"/>
				</clipPath>
				<polygon style="clip-path:url(#SVGID_16_);fill:#1A323D;" points="493.894,467.925 550.574,435.2 523.026,359.085 				"/>
			</g>
		</g>
		<g style="clip-path:url(#SVGID_12_);">
			<g>
				<defs>
					<rect id="SVGID_17_" x="437.213" y="359.085" width="113.361" height="108.839"/>
				</defs>
				<clipPath id="SVGID_18_">
					<use xlink:href="#SVGID_17_"  style="overflow:visible;"/>
				</clipPath>
				<polygon style="clip-path:url(#SVGID_18_);fill:#1A323D;" points="437.213,435.2 493.895,359.085 550.573,435.2 
					493.895,467.926 				"/>
			</g>
		</g>
	</g>
	<rect x="607.255" y="329.451" style="clip-path:url(#SVGID_2_);fill:#1A323D;" width="164.785" height="164.785"/>
	<rect x="803.008" y="329.451" style="clip-path:url(#SVGID_2_);fill:#1A323D;" width="164.784" height="164.785"/>
	<g style="clip-path:url(#SVGID_2_);">
		<defs>
			<rect id="SVGID_19_" width="1229.913" height="824.03"/>
		</defs>
		<clipPath id="SVGID_20_">
			<use xlink:href="#SVGID_19_"  style="overflow:visible;"/>
		</clipPath>
		<g style="opacity:0.6;clip-path:url(#SVGID_20_);">
			<g>
				<defs>
					<rect id="SVGID_21_" x="828.72" y="359.085" width="56.681" height="108.839"/>
				</defs>
				<clipPath id="SVGID_22_">
					<use xlink:href="#SVGID_21_"  style="overflow:visible;"/>
				</clipPath>
				<polygon style="clip-path:url(#SVGID_22_);fill:#50E3C2;" points="885.4,467.925 828.719,435.2 856.268,359.085 				"/>
			</g>
		</g>
		<g style="opacity:0.6;clip-path:url(#SVGID_20_);">
			<g>
				<defs>
					<rect id="SVGID_23_" x="885.4" y="359.085" width="56.681" height="108.839"/>
				</defs>
				<clipPath id="SVGID_24_">
					<use xlink:href="#SVGID_23_"  style="overflow:visible;"/>
				</clipPath>
				<polygon style="clip-path:url(#SVGID_24_);fill:#50E3C2;" points="885.4,467.925 942.081,435.2 914.532,359.085 				"/>
			</g>
		</g>
		<g style="opacity:0.6;clip-path:url(#SVGID_20_);">
			<g>
				<defs>
					<rect id="SVGID_25_" x="828.72" y="359.085" width="113.361" height="108.839"/>
				</defs>
				<clipPath id="SVGID_26_">
					<use xlink:href="#SVGID_25_"  style="overflow:visible;"/>
				</clipPath>
				<polygon style="clip-path:url(#SVGID_26_);fill:#50E3C2;" points="828.719,435.2 885.4,359.085 942.08,435.2 885.4,467.926 				
					"/>
			</g>
		</g>
		<g style="opacity:0.75;clip-path:url(#SVGID_20_);">
			<g>
				<defs>
					<path id="SVGID_27_" d="M854.432,435.2L854.432,435.2z"/>
				</defs>
				<clipPath id="SVGID_28_">
					<use xlink:href="#SVGID_27_"  style="overflow:visible;"/>
				</clipPath>
			</g>
		</g>
	</g>
	<rect x="998.761" y="329.451" style="clip-path:url(#SVGID_2_);fill:#0C1218;" width="164.784" height="164.785"/>
	<g style="clip-path:url(#SVGID_2_);">
		<defs>
			<rect id="SVGID_29_" width="1229.913" height="824.03"/>
		</defs>
		<clipPath id="SVGID_30_">
			<use xlink:href="#SVGID_29_"  style="overflow:visible;"/>
		</clipPath>
		<g style="opacity:0.6;clip-path:url(#SVGID_30_);">
			<g>
				<defs>
					<rect id="SVGID_31_" x="1024.47" y="359.085" width="56.681" height="108.839"/>
				</defs>
				<clipPath id="SVGID_32_">
					<use xlink:href="#SVGID_31_"  style="overflow:visible;"/>
				</clipPath>
				<polygon style="clip-path:url(#SVGID_32_);fill:#FFFFFF;" points="1081.154,467.925 1024.473,435.2 1052.021,359.085 				"/>
			</g>
		</g>
		<g style="opacity:0.6;clip-path:url(#SVGID_30_);">
			<g>
				<defs>
					<rect id="SVGID_33_" x="1081.15" y="359.085" width="56.68" height="108.839"/>
				</defs>
				<clipPath id="SVGID_34_">
					<use xlink:href="#SVGID_33_"  style="overflow:visible;"/>
				</clipPath>
				<polygon style="clip-path:url(#SVGID_34_);fill:#FFFFFF;" points="1081.154,467.925 1137.834,435.2 1110.286,359.085 				"/>
			</g>
		</g>
		<g style="opacity:0.6;clip-path:url(#SVGID_30_);">
			<g>
				<defs>
					<rect id="SVGID_35_" x="1024.47" y="359.085" width="113.36" height="108.839"/>
				</defs>
				<clipPath id="SVGID_36_">
					<use xlink:href="#SVGID_35_"  style="overflow:visible;"/>
				</clipPath>
				<polygon style="clip-path:url(#SVGID_36_);fill:#FFFFFF;" points="1024.473,435.2 1081.154,359.085 1137.833,435.2 
					1081.154,467.926 				"/>
			</g>
		</g>
		<g style="opacity:0.75;clip-path:url(#SVGID_30_);">
			<g>
				<defs>
					<path id="SVGID_37_" d="M1050.18,435.2L1050.18,435.2z"/>
				</defs>
				<clipPath id="SVGID_38_">
					<use xlink:href="#SVGID_37_"  style="overflow:visible;"/>
				</clipPath>
			</g>
		</g>
		<g style="clip-path:url(#SVGID_30_);">
			<g>
				<defs>
					<rect id="SVGID_39_" x="311.255" y="68.397" width="88.96" height="170.824"/>
				</defs>
				<clipPath id="SVGID_40_">
					<use xlink:href="#SVGID_39_"  style="overflow:visible;"/>
				</clipPath>
				<polygon style="clip-path:url(#SVGID_40_);fill:#50E3C2;" points="400.214,239.222 311.255,187.86 354.492,68.397 				"/>
			</g>
		</g>
		<g style="clip-path:url(#SVGID_30_);">
			<g>
				<defs>
					<rect id="SVGID_41_" x="400.215" y="68.397" width="88.96" height="170.824"/>
				</defs>
				<clipPath id="SVGID_42_">
					<use xlink:href="#SVGID_41_"  style="overflow:visible;"/>
				</clipPath>
				<polygon style="clip-path:url(#SVGID_42_);fill:#50E3C2;" points="400.214,239.222 489.174,187.86 445.938,68.397 				"/>
			</g>
		</g>
		<g style="clip-path:url(#SVGID_30_);">
			<g>
				<defs>
					<rect id="SVGID_43_" x="311.255" y="68.397" width="177.92" height="170.824"/>
				</defs>
				<clipPath id="SVGID_44_">
					<use xlink:href="#SVGID_43_"  style="overflow:visible;"/>
				</clipPath>
				<polygon style="clip-path:url(#SVGID_44_);fill:#50E3C2;" points="311.255,187.861 400.214,68.397 489.174,187.861 
					400.214,239.222 				"/>
			</g>
		</g>
		<g style="clip-path:url(#SVGID_30_);">
			<g>
				<defs>
					<rect id="SVGID_45_" x="1011.45" y="109.348" width="51.85" height="89.176"/>
				</defs>
				<clipPath id="SVGID_46_">
					<use xlink:href="#SVGID_45_"  style="overflow:visible;"/>
				</clipPath>
				<path style="clip-path:url(#SVGID_46_);fill:#50E3C2;" d="M1060.746,193.429h-43.944v-81.531c0-0.681-0.255-1.276-0.766-1.786
					c-0.51-0.509-1.148-0.764-1.912-0.764c-0.766,0-1.404,0.255-1.914,0.764c-0.51,0.51-0.765,1.105-0.765,1.786v84.078
					c0,0.682,0.237,1.274,0.705,1.784c0.462,0.509,1.078,0.764,1.842,0.764h46.754c0.682,0,1.273-0.234,1.788-0.702
					c0.511-0.465,0.766-1.081,0.766-1.846c0-0.678-0.255-1.273-0.766-1.783C1062.02,193.684,1061.428,193.429,1060.746,193.429"/>
			</g>
		</g>
		<g style="clip-path:url(#SVGID_30_);">
			<g>
				<defs>
					<rect id="SVGID_47_" x="936.026" y="109.348" width="53.128" height="89.176"/>
				</defs>
				<clipPath id="SVGID_48_">
					<use xlink:href="#SVGID_47_"  style="overflow:visible;"/>
				</clipPath>
				<path style="clip-path:url(#SVGID_48_);fill:#50E3C2;" d="M986.602,193.429h-45.22v-38.347h39.49
					c0.675,0,1.274-0.231,1.783-0.699c0.509-0.468,0.764-1.084,0.764-1.848c0-0.678-0.255-1.274-0.764-1.783
					c-0.509-0.51-1.108-0.764-1.783-0.764h-39.49v-35.542h45.22c0.681,0,1.278-0.234,1.788-0.703
					c0.51-0.464,0.765-1.081,0.765-1.845c0-0.681-0.255-1.276-0.765-1.786c-0.51-0.509-1.107-0.764-1.788-0.764h-48.027
					c-0.675,0-1.274,0.255-1.784,0.764c-0.509,0.51-0.763,1.105-0.763,1.786v84.078c0,0.682,0.254,1.274,0.763,1.784
					c0.51,0.509,1.109,0.764,1.784,0.764h48.027c0.681,0,1.278-0.234,1.788-0.702c0.51-0.465,0.765-1.081,0.765-1.846
					c0-0.678-0.255-1.273-0.765-1.783C987.88,193.684,987.282,193.429,986.602,193.429"/>
			</g>
		</g>
		<g style="clip-path:url(#SVGID_30_);">
			<g>
				<defs>
					<rect id="SVGID_49_" x="841.107" y="109.342" width="72.628" height="89.185"/>
				</defs>
				<clipPath id="SVGID_50_">
					<use xlink:href="#SVGID_49_"  style="overflow:visible;"/>
				</clipPath>
				<path style="clip-path:url(#SVGID_50_);fill:#50E3C2;" d="M909.708,131.708c-2.667-6.746-6.786-12.172-12.358-16.239
					c-5.559-4.08-12.409-6.126-20.568-6.126h-33.126c-0.675,0-1.269,0.264-1.782,0.766c-0.502,0.514-0.766,1.109-0.766,1.795v84.075
					c0,0.674,0.264,1.268,0.766,1.783c0.514,0.502,1.107,0.765,1.782,0.765h33.126c8.237,0,15.117-1.98,20.635-5.927
					c5.533-3.948,9.625-9.282,12.292-15.989c2.68-6.707,4.027-14.272,4.027-22.669C913.735,145.875,912.388,138.455,909.708,131.708
					 M900.229,182.539c-5.439,7.261-13.679,10.892-24.716,10.892h-29.047v-78.978h29.047c7.474,0,13.652,1.782,18.536,5.346
					c4.886,3.565,8.49,8.344,10.826,14.325c2.337,5.995,3.5,12.596,3.5,19.818C908.375,165.745,905.655,175.277,900.229,182.539"/>
			</g>
		</g>
		<g style="clip-path:url(#SVGID_30_);">
			<g>
				<defs>
					<rect id="SVGID_51_" x="745.064" y="109.092" width="73.751" height="89.435"/>
				</defs>
				<clipPath id="SVGID_52_">
					<use xlink:href="#SVGID_51_"  style="overflow:visible;"/>
				</clipPath>
				<path style="clip-path:url(#SVGID_52_);fill:#50E3C2;" d="M818.696,195.082l-34.261-84.326c-0.437-1.109-1.281-1.663-2.55-1.663
					c-0.594,0-1.081,0.104-1.465,0.316c-0.383,0.211-0.713,0.66-0.964,1.347l-34.261,84.326l-0.132,1.281
					c0.093,0.594,0.355,1.095,0.832,1.518c0.462,0.436,1.083,0.647,1.848,0.647c1.096,0,1.862-0.555,2.285-1.664l10.324-25.983
					h42.657l10.603,25.983l0.937,1.215c0.477,0.304,1.003,0.449,1.599,0.449c0.765,0,1.398-0.211,1.914-0.647
					c0.515-0.423,0.753-1.017,0.753-1.783L818.696,195.082z M762.637,165.785l19.117-48.032l19.487,48.032H762.637z"/>
			</g>
		</g>
		<g style="clip-path:url(#SVGID_30_);">
			<g>
				<defs>
					<rect id="SVGID_53_" x="663.766" y="109.348" width="67.009" height="89.176"/>
				</defs>
				<clipPath id="SVGID_54_">
					<use xlink:href="#SVGID_53_"  style="overflow:visible;"/>
				</clipPath>
				<path style="clip-path:url(#SVGID_54_);fill:#50E3C2;" d="M728.227,109.348h-61.912c-0.68,0-1.275,0.237-1.783,0.702
					c-0.51,0.468-0.766,1.04-0.766,1.721c0,0.679,0.256,1.253,0.766,1.718c0.508,0.468,1.104,0.702,1.783,0.702h28.407v81.785
					c0,0.682,0.234,1.274,0.702,1.784c0.466,0.509,1.081,0.764,1.846,0.764c0.683,0,1.273-0.255,1.783-0.764
					c0.514-0.51,0.769-1.102,0.769-1.784v-81.785h28.405c0.765,0,1.381-0.213,1.849-0.637c0.464-0.423,0.699-1.019,0.699-1.783
					c0-0.681-0.255-1.253-0.766-1.721C729.5,109.585,728.905,109.348,728.227,109.348"/>
			</g>
		</g>
		<g style="clip-path:url(#SVGID_30_);">
			<g>
				<defs>
					<rect id="SVGID_55_" x="632.948" y="109.348" width="5.349" height="89.176"/>
				</defs>
				<clipPath id="SVGID_56_">
					<use xlink:href="#SVGID_55_"  style="overflow:visible;"/>
				</clipPath>
				<path style="clip-path:url(#SVGID_56_);fill:#50E3C2;" d="M638.298,195.849v-83.823c0-0.764-0.256-1.404-0.765-1.914
					c-0.509-0.509-1.146-0.764-1.911-0.764c-0.763,0-1.399,0.255-1.909,0.764c-0.511,0.51-0.766,1.15-0.766,1.914v83.823
					c0,0.764,0.232,1.401,0.7,1.911c0.467,0.509,1.126,0.764,1.975,0.764c0.68,0,1.274-0.255,1.783-0.764
					C637.915,197.25,638.211,196.613,638.298,195.849"/>
			</g>
		</g>
		<g style="clip-path:url(#SVGID_30_);">
			<g>
				<defs>
					<rect id="SVGID_57_" x="527.402" y="108.074" width="73.507" height="91.723"/>
				</defs>
				<clipPath id="SVGID_58_">
					<use xlink:href="#SVGID_57_"  style="overflow:visible;"/>
				</clipPath>
				<path style="clip-path:url(#SVGID_58_);fill:#50E3C2;" d="M599.762,116.739c-3.906-2.716-8.261-4.84-13.057-6.372
					c-4.801-1.528-9.745-2.292-14.842-2.292c-8.069,0-15.5,1.996-22.292,5.989c-6.796,3.993-12.19,9.49-16.18,16.496
					c-3.992,7.008-5.989,14.801-5.989,23.376c0,8.581,1.997,16.372,5.989,23.377c3.99,7.008,9.384,12.506,16.18,16.499
					c6.792,3.992,14.223,5.986,22.292,5.986c4.925,0,10-0.85,15.224-2.547c5.223-1.698,9.491-3.736,12.803-6.114
					c0.678-0.51,1.018-1.191,1.018-2.041c0-0.592-0.171-1.102-0.509-1.528c-0.509-0.679-1.191-1.019-2.037-1.019
					c-0.596,0-1.106,0.171-1.53,0.509c-7.73,5.266-16.05,7.9-24.969,7.9c-7.133,0-13.694-1.762-19.683-5.287
					c-5.986-3.522-10.723-8.41-14.203-14.651c-3.484-6.241-5.223-13.27-5.223-21.084c0-7.811,1.739-14.84,5.223-21.084
					c3.48-6.241,8.217-11.122,14.203-14.65c5.989-3.522,12.55-5.284,19.683-5.284c8.833,0,17.197,2.675,25.097,8.024
					c0.678,0.34,1.188,0.509,1.529,0.509c0.764,0,1.401-0.337,1.91-1.019c0.338-0.423,0.509-0.974,0.509-1.655
					C600.908,118.012,600.527,117.333,599.762,116.739"/>
			</g>
		</g>
		<path style="clip-path:url(#SVGID_30_);fill:#2962FF;" d="M476.04,610.315c0,45.504-36.889,82.392-82.393,82.392
			c-45.503,0-82.391-36.888-82.391-82.392s36.888-82.393,82.391-82.393C439.15,527.923,476.04,564.812,476.04,610.315"/>
		<path style="clip-path:url(#SVGID_30_);fill:#40C4FF;" d="M671.793,610.315c0,45.504-36.889,82.392-82.393,82.392
			s-82.392-36.888-82.392-82.392s36.888-82.393,82.392-82.393S671.793,564.812,671.793,610.315"/>
		<path style="clip-path:url(#SVGID_30_);fill:#FFD54F;" d="M867.547,610.315c0,45.504-36.89,82.392-82.394,82.392
			c-45.503,0-82.392-36.888-82.392-82.392s36.889-82.393,82.392-82.393C830.657,527.923,867.547,564.812,867.547,610.315"/>
		<path style="clip-path:url(#SVGID_30_);fill:#616161;" d="M1063.299,610.315c0,45.504-36.889,82.392-82.393,82.392
			c-45.503,0-82.391-36.888-82.391-82.392s36.888-82.393,82.391-82.393C1026.41,527.923,1063.299,564.812,1063.299,610.315"/>
		<g style="clip-path:url(#SVGID_30_);">
			<g>
				<defs>
					<rect id="SVGID_59_" x="45.928" y="359.085" width="56.681" height="108.839"/>
				</defs>
				<clipPath id="SVGID_60_">
					<use xlink:href="#SVGID_59_"  style="overflow:visible;"/>
				</clipPath>
				<polygon style="clip-path:url(#SVGID_60_);fill:#50E3C2;" points="102.608,467.925 45.928,435.2 73.478,359.085 				"/>
			</g>
		</g>
		<g style="clip-path:url(#SVGID_30_);">
			<g>
				<defs>
					<rect id="SVGID_61_" x="102.609" y="359.085" width="56.68" height="108.839"/>
				</defs>
				<clipPath id="SVGID_62_">
					<use xlink:href="#SVGID_61_"  style="overflow:visible;"/>
				</clipPath>
				<polygon style="clip-path:url(#SVGID_62_);fill:#50E3C2;" points="102.608,467.925 159.29,435.2 131.74,359.085 				"/>
			</g>
		</g>
		<g style="clip-path:url(#SVGID_30_);">
			<g>
				<defs>
					<rect id="SVGID_63_" x="45.928" y="359.085" width="113.361" height="108.839"/>
				</defs>
				<clipPath id="SVGID_64_">
					<use xlink:href="#SVGID_63_"  style="overflow:visible;"/>
				</clipPath>
				<polygon style="clip-path:url(#SVGID_64_);fill:#50E3C2;" points="45.928,435.2 102.608,359.085 159.289,435.2 102.608,467.926 
									"/>
			</g>
		</g>
		<g style="clip-path:url(#SVGID_30_);">
			<g>
				<defs>
					<rect id="SVGID_65_" x="336.967" y="557.557" width="56.68" height="108.84"/>
				</defs>
				<clipPath id="SVGID_66_">
					<use xlink:href="#SVGID_65_"  style="overflow:visible;"/>
				</clipPath>
				<polygon style="clip-path:url(#SVGID_66_);fill:#FFFFFF;" points="393.647,666.396 336.966,633.671 364.515,557.557 				"/>
			</g>
		</g>
		<g style="clip-path:url(#SVGID_30_);">
			<g>
				<defs>
					<rect id="SVGID_67_" x="393.647" y="557.557" width="56.681" height="108.84"/>
				</defs>
				<clipPath id="SVGID_68_">
					<use xlink:href="#SVGID_67_"  style="overflow:visible;"/>
				</clipPath>
				<polygon style="clip-path:url(#SVGID_68_);fill:#FFFFFF;" points="393.647,666.396 450.328,633.671 422.779,557.557 				"/>
			</g>
		</g>
		<g style="clip-path:url(#SVGID_30_);">
			<g>
				<defs>
					<rect id="SVGID_69_" x="336.967" y="557.557" width="113.361" height="108.84"/>
				</defs>
				<clipPath id="SVGID_70_">
					<use xlink:href="#SVGID_69_"  style="overflow:visible;"/>
				</clipPath>
				<polygon style="clip-path:url(#SVGID_70_);fill:#FFFFFF;" points="336.966,633.672 393.647,557.556 450.327,633.672 
					393.647,666.396 				"/>
			</g>
		</g>
		<g style="clip-path:url(#SVGID_30_);">
			<g>
				<defs>
					<rect id="SVGID_71_" x="532.72" y="557.557" width="56.681" height="108.84"/>
				</defs>
				<clipPath id="SVGID_72_">
					<use xlink:href="#SVGID_71_"  style="overflow:visible;"/>
				</clipPath>
				<polygon style="clip-path:url(#SVGID_72_);fill:#2962FF;" points="589.401,666.396 532.72,633.671 560.269,557.557 				"/>
			</g>
		</g>
		<g style="clip-path:url(#SVGID_30_);">
			<g>
				<defs>
					<rect id="SVGID_73_" x="589.401" y="557.557" width="56.68" height="108.84"/>
				</defs>
				<clipPath id="SVGID_74_">
					<use xlink:href="#SVGID_73_"  style="overflow:visible;"/>
				</clipPath>
				<polygon style="clip-path:url(#SVGID_74_);fill:#2962FF;" points="589.401,666.396 646.081,633.671 618.533,557.557 				"/>
			</g>
		</g>
		<g style="clip-path:url(#SVGID_30_);">
			<g>
				<defs>
					<rect id="SVGID_75_" x="532.72" y="557.557" width="113.361" height="108.84"/>
				</defs>
				<clipPath id="SVGID_76_">
					<use xlink:href="#SVGID_75_"  style="overflow:visible;"/>
				</clipPath>
				<polygon style="clip-path:url(#SVGID_76_);fill:#2962FF;" points="532.72,633.672 589.401,557.556 646.08,633.672 
					589.401,666.396 				"/>
			</g>
		</g>
		<g style="clip-path:url(#SVGID_30_);">
			<g>
				<defs>
					<rect id="SVGID_77_" x="728.473" y="557.557" width="56.682" height="108.84"/>
				</defs>
				<clipPath id="SVGID_78_">
					<use xlink:href="#SVGID_77_"  style="overflow:visible;"/>
				</clipPath>
				<polygon style="clip-path:url(#SVGID_78_);fill:#B0B0B0;" points="785.154,666.396 728.473,633.671 756.021,557.557 				"/>
			</g>
		</g>
		<g style="clip-path:url(#SVGID_30_);">
			<g>
				<defs>
					<rect id="SVGID_79_" x="785.154" y="557.557" width="56.68" height="108.84"/>
				</defs>
				<clipPath id="SVGID_80_">
					<use xlink:href="#SVGID_79_"  style="overflow:visible;"/>
				</clipPath>
				<polygon style="clip-path:url(#SVGID_80_);fill:#B0B0B0;" points="785.154,666.396 841.835,633.671 814.286,557.557 				"/>
			</g>
		</g>
		<g style="clip-path:url(#SVGID_30_);">
			<g>
				<defs>
					<rect id="SVGID_81_" x="728.473" y="557.557" width="113.361" height="108.84"/>
				</defs>
				<clipPath id="SVGID_82_">
					<use xlink:href="#SVGID_81_"  style="overflow:visible;"/>
				</clipPath>
				<polygon style="clip-path:url(#SVGID_82_);fill:#B0B0B0;" points="728.473,633.672 785.154,557.556 841.834,633.672 
					785.154,666.396 				"/>
			</g>
		</g>
		<g style="clip-path:url(#SVGID_30_);">
			<g>
				<defs>
					<rect id="SVGID_83_" x="924.227" y="557.557" width="56.681" height="108.84"/>
				</defs>
				<clipPath id="SVGID_84_">
					<use xlink:href="#SVGID_83_"  style="overflow:visible;"/>
				</clipPath>
				<polygon style="clip-path:url(#SVGID_84_);fill:#FFFFFF;" points="980.906,666.396 924.226,633.671 951.774,557.557 				"/>
			</g>
		</g>
		<g style="clip-path:url(#SVGID_30_);">
			<g>
				<defs>
					<rect id="SVGID_85_" x="980.907" y="557.557" width="56.683" height="108.84"/>
				</defs>
				<clipPath id="SVGID_86_">
					<use xlink:href="#SVGID_85_"  style="overflow:visible;"/>
				</clipPath>
				<polygon style="clip-path:url(#SVGID_86_);fill:#FFFFFF;" points="980.906,666.396 1037.588,633.671 1010.039,557.557 				"/>
			</g>
		</g>
		<g style="clip-path:url(#SVGID_30_);">
			<g>
				<defs>
					<rect id="SVGID_87_" x="924.227" y="557.557" width="113.363" height="108.84"/>
				</defs>
				<clipPath id="SVGID_88_">
					<use xlink:href="#SVGID_87_"  style="overflow:visible;"/>
				</clipPath>
				<polygon style="clip-path:url(#SVGID_88_);fill:#FFFFFF;" points="924.227,633.672 980.907,557.556 1037.587,633.672 
					980.907,666.396 				"/>
			</g>
		</g>
		<g style="clip-path:url(#SVGID_30_);">
			<g>
				<defs>
					<rect id="SVGID_89_" x="632.966" y="359.085" width="56.681" height="108.839"/>
				</defs>
				<clipPath id="SVGID_90_">
					<use xlink:href="#SVGID_89_"  style="overflow:visible;"/>
				</clipPath>
				<polygon style="clip-path:url(#SVGID_90_);fill:#FFFFFF;" points="689.646,467.925 632.966,435.2 660.515,359.085 				"/>
			</g>
		</g>
		<g style="clip-path:url(#SVGID_30_);">
			<g>
				<defs>
					<rect id="SVGID_91_" x="689.646" y="359.085" width="56.681" height="108.839"/>
				</defs>
				<clipPath id="SVGID_92_">
					<use xlink:href="#SVGID_91_"  style="overflow:visible;"/>
				</clipPath>
				<polygon style="clip-path:url(#SVGID_92_);fill:#FFFFFF;" points="689.646,467.925 746.328,435.2 718.779,359.085 				"/>
			</g>
		</g>
		<g style="clip-path:url(#SVGID_30_);">
			<g>
				<defs>
					<rect id="SVGID_93_" x="632.966" y="359.085" width="113.361" height="108.839"/>
				</defs>
				<clipPath id="SVGID_94_">
					<use xlink:href="#SVGID_93_"  style="overflow:visible;"/>
				</clipPath>
				<polygon style="clip-path:url(#SVGID_94_);fill:#FFFFFF;" points="632.967,435.2 689.647,359.085 746.327,435.2 
					689.647,467.926 				"/>
			</g>
		</g>
		<g style="clip-path:url(#SVGID_30_);">
			<g>
				<defs>
					<path id="SVGID_95_" d="M632.966,435.2L632.966,435.2z"/>
				</defs>
				<clipPath id="SVGID_96_">
					<use xlink:href="#SVGID_95_"  style="overflow:visible;"/>
				</clipPath>
			</g>
		</g>
	</g>
</g>
</svg>
